<svg viewBox="0 0 21 22" xmlns="http://www.w3.org/2000/svg" fill="#939393" fill-rule="evenodd" clip-rule="evenodd" stroke-linejoin="round" stroke-miterlimit="1.414"><path d="M7.888 0C6.797 0 5.845.572 5.276 1.435c-.443-.293-.94-.517-1.521-.517A2.75 2.75 0 0 0 1 3.674c0 .818.356 1.548.918 2.052v13.288c0 .928.249 1.705.79 2.238.537.53 1.315.769 2.238.747h8.639c.924 0 1.698-.228 2.239-.761.54-.533.789-1.318.789-2.267V16.99c1.549 0 2.742-1 3.487-2.324.745-1.324 1.105-2.998 1.105-4.564 0-1.64-1.262-2.755-2.755-2.755-.726 0-1.376.154-1.837.287V6.056a2.743 2.743 0 0 0 1.377-2.382A2.749 2.749 0 0 0 15.235.918c-.714 0-1.342.331-1.837.79-.494-.459-1.122-.79-1.836-.79-.451 0-.865.133-1.249.33C9.728.525 8.87 0 7.888 0zm0 .918c.789 0 1.58.474 1.952 1.105a.458.458 0 0 0 .66.13c.279-.21.64-.316 1.062-.316.581 0 1.138.298 1.463.732a.461.461 0 0 0 .747 0 1.868 1.868 0 0 1 1.463-.732c1.045 0 1.837.791 1.837 1.837 0 1.045-.792 1.836-1.837 1.836a1.87 1.87 0 0 1-1.463-.731.46.46 0 0 0-.747 0c-.202.269-1.004.933-1.004 1.966 0 1.274.249 2.18.488 2.855.239.675.43 1.115.43 1.421a1.378 1.378 0 0 1-2.755 0c0-.306.192-.746.431-1.421a8.21 8.21 0 0 0 .487-2.855c0-.965-.685-1.605-.961-1.88a.461.461 0 0 0-.631-.015c-.441.401-.967.66-1.622.66-.765 0-1.408-.387-1.837-.932a.46.46 0 0 0-.775.071c-.283.532-.847.861-1.521.861-1.045 0-1.837-.791-1.837-1.836 0-1.046.792-1.837 1.837-1.837.512 0 .95.215 1.349.574a.461.461 0 0 0 .732-.158A2.214 2.214 0 0 1 7.888.918zM5.707 5.467c.571.545 1.296.962 2.181.962.724 0 1.322-.284 1.837-.646.231.267.459.586.459.962 0 1.091-.182 1.836-.387 2.439h-6.96V6.271c.287.101.595.158.918.158.787 0 1.458-.397 1.952-.962zm7.763.23c.487.422 1.083.732 1.765.732.156 0 .311-.019.459-.043V8.18a.485.485 0 0 0 0 .186v.818h-2.367c-.206-.603-.388-1.348-.388-2.439 0-.385.259-.717.531-1.048zm4.98 2.569c1.078 0 1.836.63 1.836 1.836 0 1.42-.346 2.961-.99 4.105-.644 1.144-1.523 1.865-2.683 1.865V9.729a.448.448 0 0 0 0-.186v-.947c.377-.127 1.086-.33 1.837-.33z"/></svg>