<svg viewBox="0 0 50 50" xmlns="http://www.w3.org/2000/svg" fill-rule="evenodd" clip-rule="evenodd" stroke-linecap="round" stroke-miterlimit="10"><path d="M45.065 0l.064.002.064.002.064.003.064.003.064.005.063.005.063.006.063.007.063.007.062.009.062.009.062.01.062.01.061.012.062.012.061.013.06.013.061.015.06.015.059.016.06.016.059.017.059.018.058.019.059.019.058.02.057.021.057.022.057.022.113.046.112.049.11.051.108.054.107.057.106.059.104.061.102.064.101.067.098.068.098.071.095.074.093.075.092.078.09.079.088.082.086.084.083.086.082.088.08.09.077.091.076.094.073.095.071.098.068.099.066.1.064.102.062.104.059.106.056.107.054.108.051.11.049.112.046.113.022.056.022.058.02.057.02.058.02.058.018.059.018.059.017.059.017.059.016.06.015.06.014.06.014.061.012.06.013.061.011.062.011.061.009.062.009.062.009.063.007.062.007.063.006.063.005.063.005.064.003.063.003.064.002.064.002.065v40.129l-.002.064-.002.064-.003.064-.003.064-.005.064-.005.063-.006.063-.007.063-.007.063-.009.062-.009.062-.01.062-.01.062-.012.061-.012.062-.013.061-.013.06-.015.061-.015.06-.016.059-.016.06-.017.059-.018.059-.019.058-.019.059-.02.058-.021.057-.022.057-.022.057-.046.113-.049.112-.051.11-.054.108-.057.107-.059.106-.061.104-.064.102-.067.101-.068.098-.071.098-.074.095-.075.093-.078.092-.079.09-.082.088-.084.086-.086.083-.088.082-.09.08-.091.077-.094.076-.095.073-.098.071-.099.068-.1.066-.102.064-.104.062-.106.059-.107.056-.108.054-.11.051-.112.049-.113.046-.056.022-.058.022-.057.02-.058.02-.058.02-.059.018-.059.018-.059.017-.059.017-.06.016-.06.015-.06.014-.061.014-.06.012-.061.013-.062.011-.061.011-.062.009-.062.009-.063.009-.062.007-.063.007-.063.006-.063.005-.064.005-.063.003-.064.003-.064.002-.065.002H4.935l-.064-.002-.064-.002-.064-.003-.064-.003-.064-.005-.063-.005-.063-.006-.063-.007-.063-.007-.062-.009-.062-.009-.062-.01-.062-.01-.061-.012-.062-.012-.061-.013-.06-.013-.06-.015-.061-.015-.059-.016-.06-.016-.059-.017-.059-.018-.058-.019-.059-.019-.058-.02-.057-.021-.057-.022-.057-.022-.113-.046-.112-.049-.11-.051-.108-.054-.107-.057-.106-.059-.104-.061-.102-.064-.101-.067-.098-.068-.098-.071-.095-.074-.093-.075-.092-.078-.09-.079-.088-.082-.086-.084-.083-.086-.082-.088-.08-.09-.077-.091-.076-.094-.073-.095-.071-.098-.068-.099-.066-.1-.064-.102-.062-.104-.059-.106-.056-.107-.054-.108-.051-.11-.049-.112-.046-.113-.022-.056-.022-.058-.02-.057-.02-.058-.02-.058-.018-.059-.018-.059-.017-.059-.017-.059-.016-.06-.015-.06-.014-.06-.014-.061-.012-.06-.013-.061-.011-.062-.011-.061-.009-.062-.009-.062-.009-.063-.007-.062-.007-.063-.006-.063-.005-.063-.005-.064-.003-.063-.003-.064-.002-.064L0 45.064V4.935l.002-.064.002-.064.003-.064.003-.064.005-.064.005-.063.006-.063.007-.063.007-.063.009-.062.009-.062.01-.062.01-.062.012-.061.012-.062.013-.061.013-.06.015-.06.015-.061.016-.059.016-.06.017-.059.018-.059.019-.058.019-.059.02-.058.021-.057.022-.057.022-.057.046-.113.049-.112.051-.11.054-.108.057-.107.059-.106.061-.104.064-.102.067-.101.068-.098.071-.098.074-.095.075-.093.078-.092.079-.09.082-.088.084-.086.086-.083.088-.082.09-.08.091-.077.094-.076.095-.073.098-.071.099-.068.1-.066.102-.064.104-.062.106-.059.107-.056.108-.054.11-.051.112-.049.113-.046.056-.022.058-.022.057-.02.058-.02.058-.02.059-.018.059-.018.059-.017.059-.017.06-.016.06-.015.06-.014.061-.014.06-.012.061-.013.062-.011.061-.011.062-.009.062-.009.063-.009.062-.007.063-.007.063-.006.063-.005L4.68.01l.063-.003.064-.003.064-.002L4.936 0h40.129zM5.008 2.667h-.069l-.03.001-.03.002-.03.002-.03.002-.03.002-.029.003-.029.003-.03.004-.029.003-.028.005-.029.004-.029.005-.028.005-.028.006-.028.006-.028.006-.028.007-.028.007-.028.007-.027.008-.027.008-.028.008-.027.009-.026.008-.027.01-.027.009-.026.01-.019.007-.06.025-.052.023-.051.023-.05.026-.05.026-.049.027-.049.029-.048.03-.047.031-.046.032-.046.033-.045.035-.044.035-.043.037-.042.037-.042.039-.04.039-.04.041-.038.041-.038.042-.036.043-.036.044-.034.045-.033.046-.033.046-.031.047-.029.048-.029.048-.028.05-.026.049-.025.051-.024.051-.023.052-.024.059-.007.019-.01.027-.01.026-.009.027-.009.027-.009.027-.008.027-.008.027-.008.028-.007.027-.007.028-.007.028-.006.028-.006.028-.005.029-.006.028-.005.029-.004.028-.005.029-.003.029-.004.03-.003.029-.003.03-.002.029-.002.03-.002.03-.002.03-.001.031v40.122l.001.03.002.03.002.03.002.03.002.03.003.029.003.029.004.03.003.029.005.028.004.029.005.029.005.028.006.028.006.028.006.028.007.028.007.028.007.028.008.027.008.027.008.028.009.027.008.026.01.027.009.027.01.026.007.019.025.06.023.052.023.051.026.05.026.05.027.049.029.049.03.048.031.047.032.046.033.046.035.045.035.044.037.043.037.042.039.042.039.04.041.04.041.038.042.038.043.036.044.036.045.034.046.033.046.032.047.032.048.029.048.029.05.028.049.026.051.025.051.024.052.023.059.024.019.007.027.01.026.01.027.009.027.009.027.009.027.008.027.008.028.008.027.007.028.007.028.007.028.006.028.006.029.005.028.006.029.005.028.004.029.005.029.003.03.004.029.003.029.003.03.002.03.002.03.002.03.002.031.001h40.122l.03-.001.03-.002.03-.001.03-.003.03-.002.029-.003.029-.003.03-.004.028-.003.029-.005.029-.004.029-.005.028-.005.028-.006.028-.006.028-.006.028-.007.028-.007.028-.007.027-.008.027-.008.027-.008.028-.009.026-.008.027-.01.027-.009.026-.01.019-.007.06-.025.052-.023.051-.023.05-.026.05-.026.049-.027.049-.029.048-.03.047-.031.046-.032.046-.033.045-.035.044-.035.043-.037.042-.037.042-.039.04-.039.04-.041.038-.041.038-.042.036-.043.036-.044.034-.045.033-.046.033-.046.031-.047.029-.048.029-.048.028-.05.026-.049.025-.051.024-.051.023-.051.024-.06.007-.019.01-.027.01-.026.009-.027.009-.027.009-.027.008-.027.008-.027.008-.028.007-.027.007-.028.007-.028.006-.028.006-.028.005-.029.006-.028.005-.029.004-.028.005-.029.003-.029.004-.03.003-.029.003-.029.002-.03.002-.03.002-.03.002-.03.001-.031V4.939l-.001-.03-.002-.03-.001-.03-.003-.03-.002-.03-.003-.029-.003-.029-.004-.03-.003-.028-.005-.029-.004-.029-.005-.029-.005-.028-.006-.028-.006-.028-.006-.028-.007-.028-.007-.028-.007-.028-.008-.027-.008-.027-.008-.027-.009-.028-.008-.026-.01-.027-.009-.027-.01-.026-.007-.019-.025-.06-.023-.052-.023-.051-.026-.05-.026-.05-.027-.049-.029-.049-.03-.048-.031-.047-.032-.046-.033-.046-.035-.045-.035-.044-.037-.043-.037-.042-.039-.042-.039-.04-.041-.04-.041-.038-.042-.038-.043-.036-.044-.036-.045-.034-.046-.033-.046-.033-.047-.031-.048-.029-.048-.029-.05-.028-.049-.026-.051-.025-.051-.024-.052-.023-.059-.024-.019-.007-.027-.01-.026-.01-.027-.009-.027-.009-.027-.009-.027-.008-.027-.008-.028-.008-.027-.007-.028-.007-.028-.007-.028-.006-.028-.006-.029-.005-.028-.006-.029-.005-.028-.004-.029-.005-.029-.003-.03-.004-.029-.003-.03-.003-.029-.002-.03-.002-.03-.002-.03-.002-.031-.001H5.008z" fill="#b3b3b3"/><path d="M11 39l28-28M26.611 39.278L39.339 26.55M10.5 23.167l12.728-12.728" fill="none" stroke-width="2" stroke="#b3b3b3"/></svg>