<svg viewBox="0 0 20 20" xmlns="http://www.w3.org/2000/svg" fill="#2475ff" fill-rule="evenodd" clip-rule="evenodd" stroke-linejoin="round" stroke-miterlimit="1.414"><path d="M19.25 6.208c.48 1.17.749 2.449.75 3.792 0 5.523-4.477 10-10 10-.105 0-.203-.014-.307-.016 0 0 2.714-5.205 3.853-6.79.667-.927 1.244-1.963 1.244-3.194 0-1.552-.754-2.917-1.894-3.792h6.354zM9.999 14.79c-2.09 0-3.682-1.412-4.503-3.211-.825-1.81-3.943-6.915-3.943-6.915A9.94 9.94 0 0 0 0 10c0 5.015 3.697 9.157 8.512 9.877l3.108-5.389a4.702 4.702 0 0 1-1.621.302zm-.02-9.578c2.187-.016 8.75-.083 8.75-.083C17.018 2.071 13.754 0 10 0a9.976 9.976 0 0 0-7.757 3.693l3.055 5.425a4.79 4.79 0 0 1 4.681-3.906z"/><path d="M10 7c1.655 0 3 1.344 3 3s-1.345 3-3 3a3.001 3.001 0 0 1-3-2.93V10c0-1.656 1.344-3 3-3z"/></svg>