<svg viewBox="0 0 64 59" xmlns="http://www.w3.org/2000/svg" fill-rule="evenodd" clip-rule="evenodd" stroke-linejoin="round" stroke-miterlimit="1.414"><path d="M1.103 57.899C1.791 58.657 2.69 59 3.724 59h56.552c1.035 0 1.933-.343 2.62-1.101.76-.69 1.104-1.583 1.104-2.616V43.029c0-1.033-.344-1.929-1.103-2.616-.688-.758-1.586-1.101-2.621-1.101H42.482l-5.239 5.23c-1.517 1.447-3.241 2.134-5.241 2.134-2 0-3.724-.687-5.242-2.135l-5.175-5.23H3.724c-1.035 0-1.933.344-2.62 1.102C.343 41.1 0 41.996 0 43.029v12.254c0 1.033.344 1.926 1.103 2.616zm11.931-34.08l17.24 17.214c.486.481 1.036.757 1.728.757.688 0 1.24-.276 1.723-.757l17.24-17.213c.76-.758.966-1.65.554-2.684-.482-1.034-1.241-1.515-2.277-1.515H39.38V2.41c0-.62-.274-1.24-.759-1.724C38.138.206 37.588 0 36.896 0h-9.792c-.689 0-1.242.206-1.724.687-.482.485-.759 1.104-.759 1.724v17.21h-9.863c-1.033 0-1.791.481-2.274 1.515-.415 1.034-.209 1.926.55 2.684zM46.76 49.155c.689 0 1.242.277 1.724.758.483.482.76 1.034.76 1.72 0 .69-.277 1.24-.76 1.721-.482.485-1.035.758-1.724.758-.62 0-1.24-.273-1.723-.758-.483-.481-.692-1.03-.692-1.72 0-.687.21-1.24.692-1.72.482-.482 1.103-.759 1.723-.759zm9.864 0c.688 0 1.241.277 1.723.758.483.482.76 1.034.76 1.72 0 .69-.277 1.24-.76 1.721-.482.485-1.035.758-1.723.758-.692 0-1.242-.273-1.724-.758-.486-.481-.76-1.03-.76-1.72 0-.687.274-1.24.76-1.72.482-.482 1.032-.759 1.724-.759z" fill="#b3b3b3"/></svg>