<svg viewBox="0 0 58 59" xmlns="http://www.w3.org/2000/svg" fill-rule="evenodd" clip-rule="evenodd" stroke-linejoin="round" stroke-miterlimit="1.414"><path d="M7.662.001A1.321 1.321 0 0 0 6.591 1.32v5.272H1.318a1.942 1.942 0 0 0-.124 0A1.324 1.324 0 0 0 0 7.91v7.91c0 .723.595 1.317 1.318 1.317h5.273v32.954c0 .724.594 1.318 1.318 1.318h32.954v5.273c0 .724.594 1.318 1.318 1.318h7.909c.723 0 1.318-.594 1.318-1.318v-5.273h5.272c.724 0 1.319-.594 1.319-1.318v-7.909c0-.723-.595-1.318-1.319-1.318H17.136V1.32c0-.724-.595-1.32-1.318-1.32h-7.91a1.942 1.942 0 0 0-.123 0 1.9 1.9 0 0 0-.123 0zm1.565 2.637H14.5v39.544c0 .724.594 1.318 1.318 1.318h39.544v5.273H9.227V2.638zm10.299 3.954a1.328 1.328 0 0 0-1.201 1.318 1.33 1.33 0 0 0 1.447 1.318h29v29.018c0 .724.594 1.318 1.318 1.318.723 0 1.318-.594 1.318-1.318V7.91c0-.723-.595-1.318-1.318-1.318H19.772a1.942 1.942 0 0 0-.124 0 1.9 1.9 0 0 0-.122 0zM2.636 9.228h3.955v5.273H2.636V9.228zm16.89 5.273a1.328 1.328 0 0 0-1.201 1.318 1.33 1.33 0 0 0 1.447 1.318h21.09v21.11c0 .723.595 1.317 1.319 1.317.723 0 1.318-.594 1.318-1.318V15.82c0-.723-.595-1.318-1.318-1.318H19.772a1.942 1.942 0 0 0-.124 0 1.9 1.9 0 0 0-.122 0zM43.499 51.41h5.273v3.955h-5.273V51.41z" fill="#b3b3b3" fill-rule="nonzero"/></svg>