<svg fill="#939393" xmlns="http://www.w3.org/2000/svg" viewBox="0 0 20 20" stroke-linejoin="round"><path d="M10 11.7l-7.905 8.1c-.19.1-.285.2-.476.2-.095 0-.286-.1-.38-.2l-1.049-1a.784.784 0 0 1-.19-.5c0-.1.095-.3.19-.4L7.905 10 .19 2.1C.095 2 0 1.8 0 1.7c0-.2.095-.4.19-.5l1.048-1c.095-.1.286-.2.381-.2.19 0 .286.1.476.2L10 8.3 17.905.2c.19-.1.285-.2.476-.2.095 0 .286.1.38.2l1.049 1c.095.1.19.3.19.5 0 .1-.095.3-.19.4L12.095 10l7.715 7.9c.095.1.19.3.19.4 0 .2-.095.4-.19.5l-1.048 1c-.095.1-.286.2-.381.2-.19 0-.286-.1-.476-.2L10 11.7z"/></svg>