<svg viewBox="0 0 20 20" xmlns="http://www.w3.org/2000/svg" fill-rule="evenodd" clip-rule="evenodd" stroke-linejoin="round" stroke-miterlimit="1.414"><path d="M3.031 3.502a8.894 8.894 0 0 1 14.563.593 150 150 0 0 0-1.113-1.83s1.168.793 1.294 1.21v-.292s.875.626 1.46 1.92c.585 1.291.54 2.467.459 2.92-.066.368-.147.565-.159.596.059-.089.306-.682.296-1.019.175.829.186 2.368.044 3.792-.175 1.742-.651 1.628-.557 1.636 0 0-.31 1.422-.603 2.173-.291.751-.732 1.58-2.234 2.289 0 0-1.078 1.18-1.663 1.598-.583.416-2.51.739-4.387.655 0 0 .041.125.334.291 0 0-1.085.126-2.838-.583 0 0 .126.25.668.417 0 0-2.295-.208-5.007-2.545C.876 14.988.46 11.901.376 10.941c0 0-.251.543-.251 1.001 0 0-.084-2.878.334-3.503 0 0-.375.459-.459.834 0 0 .483-2.372 1.25-3.485l.013.008h-.001a2.56 2.56 0 0 1 .084-.125c-.022-.298-.044-.619-.05-.612.04-.791.237-2.101 1.04-2.877 0 0 .264.681.695 1.32zm12.112.228a7.196 7.196 0 0 0-5.039-2.05c-2.006 0-3.822.82-5.13 2.143.471.037.871.15.813.311a.083.083 0 0 0 .013.008s1.085-1.46 2.67-1.25c0 0-1.13 1.008-1.365 2.034a2.512 2.512 0 0 0-.053.15c.33.255.727.547.834.568.417.084 1.753-.042 1.96.167.21.209-.04.876-.166 1.001-.125.126-1.085.584-1.335.751-.112.075-.673.487-.794.553.13.396.257.99.153 1.263a2.054 2.054 0 0 0-.172-.191c-.066-.066-.725-.084-.668-.045-.183.08-.336.274-.414.515l-.009-.004a3.258 3.258 0 0 0-.151.512c.181.255.463.652.511.692.752.625 2.003 1.084 2.879.5.877-.584 2.045-.208 2.378.168.334.375.25.75 0 .75s-.542-.125-.792.125c0 0-1.001.793-1.627 1.001-.417.14-1.448.064-1.953.055 0 0 .179.03.227.06 0 0-.583-.081-.788-.083.134.13.844.818 1.387.886.668.083 1.335.292 1.335.418 0 0-.584-.126-.71 0 0 0 .626.583 1.962.375 1.335-.209 1.627-.375 1.627-.375s-.035.282-.172.36c.127-.057.551-.266.798-.652.292-.46.5-.293.5-.293s-.124.21 0 .25c.126.043.918-.416 1.336-1.75.417-1.336.334-1.629.334-1.629s.292.126.292.627c0 0 .376-1.335.291-2.044-.083-.71-.208-1.96-.208-1.96s.584.29.876 1c0 0 .042-2.168-.542-3.086-.584-.918-.876-1.419-1.502-1.878 0 0 .155-.015.414.047z" fill="#939393"/></svg>