<svg viewBox="0 0 60 42" xmlns="http://www.w3.org/2000/svg" fill-rule="evenodd" clip-rule="evenodd" stroke-linejoin="round" stroke-miterlimit="1.414"><path d="M2.82 39.235C4.74 41.06 6.96 42 9.66 42h23.58c2.638 0 4.918-.94 6.779-2.765 1.922-1.882 2.82-4.06 2.82-6.706v-5.412l13.499 13.235c.422.414.9.59 1.502.59.3 0 .54-.058.84-.176.9-.354 1.32-1.002 1.32-1.942V3.116c0-.88-.42-1.528-1.32-1.94-.3-.06-.54-.117-.84-.117-.601 0-1.08.175-1.502.587l-13.5 13.177V9.41c0-2.59-.897-4.822-2.82-6.646C38.159.88 35.879 0 33.24 0H9.66c-2.7 0-4.92.88-6.84 2.765C.96 4.589 0 6.822 0 9.41v23.12c0 2.647.96 4.824 2.82 6.706z" fill="#b3b3b3"/></svg>