<svg viewBox="0 0 64 64" xmlns="http://www.w3.org/2000/svg" fill-rule="evenodd" clip-rule="evenodd" stroke-linejoin="round" stroke-miterlimit="1.414"><path d="M29.595.003c-.218.027-.424.11-.6.241L.522 22.078a1.28 1.28 0 0 0 .44 2.24L13.4 27.516.522 37.434a1.28 1.28 0 0 0 .44 2.24l12.477 3.238L.522 52.751a1.281 1.281 0 0 0 .44 2.279l34.551 8.918c.428.107.882-.014 1.2-.32l26.874-25.114a1.28 1.28 0 0 0-.68-2.2l-11.358-1.92 12.038-11.236a1.28 1.28 0 0 0-.68-2.2l-11.317-1.92L63.587 7.803a1.28 1.28 0 0 0-.68-2.2L29.994.003a1.314 1.314 0 0 0-.4 0zm.52 2.6l4.559.76c-.065.153-.12.303-.12.48a1.28 1.28 0 0 0 2.56 0v-.04l5.438.92c.234.253.587.4.96.4.195 0 .354-.083.519-.16l10.198 1.759c-.284.234-.48.563-.48.96a1.28 1.28 0 0 0 2.56 0c0-.24-.086-.448-.2-.64l3.839.64L48.15 18.719c-.071.046-.138.1-.2.16a1.28 1.28 0 0 0-.199.2 1.195 1.195 0 0 0-.04.08L35.473 30.595l-2.48-.64c-.233-.306-.584-.519-1-.519-.176 0-.326.055-.48.12l-9.797-2.52c.008-.056.04-.1.04-.16a1.28 1.28 0 0 0-1.28-1.279c-.53 0-.965.34-1.16.8l-2.399-.6-.08-.04-.44-.08a1.298 1.298 0 0 0-.12-.04l-6.398-1.68a1.3 1.3 0 0 0 .36-.92 1.28 1.28 0 0 0-2.56 0c0 .147.036.27.081.401l-3.64-.96 15.357-11.757a1.28 1.28 0 1 0 1-.48c-.177 0-.327.055-.48.12l3.12-2.4c.134.561.596 1 1.198 1a1.28 1.28 0 0 0 1.28-1.28c0-.48-.29-.86-.68-1.08l2.36-1.838c.23.217.539.36.88.36a1.28 1.28 0 0 0 1.279-1.28c0-.22-.061-.419-.16-.6l.84-.64zm1.88 3.799a1.28 1.28 0 1 0 0 2.56 1.28 1.28 0 0 0 0-2.56zm7.677 0a1.28 1.28 0 1 0 .001 2.56 1.28 1.28 0 0 0 0-2.56zm7.678 0a1.28 1.28 0 1 0 .001 2.56 1.28 1.28 0 0 0 0-2.56zM28.155 10.24a1.28 1.28 0 1 0 .001 2.56 1.28 1.28 0 0 0 0-2.56zm7.678 0a1.28 1.28 0 1 0 .001 2.56 1.28 1.28 0 0 0 0-2.56zm7.678 0a1.28 1.28 0 1 0 .001 2.56 1.28 1.28 0 0 0 0-2.56zm7.679 0a1.28 1.28 0 1 0 0 2.56 1.28 1.28 0 0 0 0-2.56zm-34.552 3.84a1.28 1.28 0 1 0 .001 2.56 1.28 1.28 0 0 0 0-2.56zm7.678 0a1.28 1.28 0 1 0 .001 2.56 1.28 1.28 0 0 0 0-2.56zm7.678 0a1.28 1.28 0 1 0 .001 2.56 1.28 1.28 0 0 0 0-2.56zm7.678 0a1.28 1.28 0 1 0 .001 2.56 1.28 1.28 0 0 0 0-2.56zm7.678 0a1.28 1.28 0 1 0 .001 2.56 1.28 1.28 0 0 0 0-2.56zM12.8 17.919a1.28 1.28 0 1 0 0 2.56 1.28 1.28 0 0 0 0-2.56zm7.677 0a1.28 1.28 0 1 0 .001 2.56 1.28 1.28 0 0 0 0-2.56zm7.678 0a1.28 1.28 0 1 0 .001 2.56 1.28 1.28 0 0 0 0-2.56zm7.678 0a1.28 1.28 0 1 0 .001 2.56 1.28 1.28 0 0 0 0-2.56zm7.678 0a1.28 1.28 0 1 0 .001 2.56 1.28 1.28 0 0 0 0-2.56zm5.72 3.32l10.717 1.799L48.23 34.035a1.576 1.576 0 0 0-.08.08h-.04c-.22.119-.402.299-.52.52L35.474 45.952 4.122 37.835l12.437-9.479 18.954 4.88c.428.107.882-.015 1.2-.32L49.23 21.238zm-32.593.519a1.28 1.28 0 1 0 .001 2.56 1.28 1.28 0 0 0 0-2.56zm7.678 0a1.28 1.28 0 1 0 .001 2.56 1.28 1.28 0 0 0 0-2.56zm7.678 0a1.28 1.28 0 1 0 .001 2.56 1.28 1.28 0 0 0 0-2.56zm7.678 0a1.28 1.28 0 1 0 .001 2.56 1.28 1.28 0 0 0 0-2.56zm-11.517 3.839a1.28 1.28 0 1 0 .001 2.56 1.28 1.28 0 0 0 0-2.56zm7.678 0a1.28 1.28 0 1 0 .001 2.56 1.28 1.28 0 0 0 0-2.56zm13.358 10.998l10.757 1.799-24.514 22.874-31.312-8.077 12.157-9.278c.087-.057.167-.124.239-.2l18.995 4.879c.428.107.882-.014 1.2-.32l12.478-11.677z" fill="#b3b3b3" fill-rule="nonzero"/></svg>