<svg viewBox="0 0 24 24" xmlns="http://www.w3.org/2000/svg" fill-rule="evenodd" clip-rule="evenodd" stroke-linejoin="round" stroke-miterlimit="1.414"><path d="M4.693 19.325a.58.58 0 0 0 .437.175h4.988a.584.584 0 0 0 .438-.175.63.63 0 0 0 .192-.438V5.13a.596.596 0 0 0-.192-.437.593.593 0 0 0-.438-.193H5.13a.59.59 0 0 0-.437.193.593.593 0 0 0-.193.437v13.757c0 .158.07.315.193.438zm8.75 0a.585.585 0 0 0 .439.175h4.988a.58.58 0 0 0 .437-.175.626.626 0 0 0 .193-.438V5.13a.593.593 0 0 0-.193-.437.59.59 0 0 0-.437-.193h-4.988a.594.594 0 0 0-.439.193.595.595 0 0 0-.191.437v13.757c0 .158.069.315.191.438z"/></svg>